<svg data-v-423bf9ae="" xmlns="http://www.w3.org/2000/svg" viewBox="0 0 275 90" class="iconLeft"><!----><!----><!----><g data-v-423bf9ae="" id="c0a35611-5a4f-41a4-9150-d4e5143159a9" fill="white" transform="matrix(5.808325309113267,0,0,5.808325309113267,107.25835911328144,-5.503387936573731)"><path d="M6.01 11.59L6.62 11.59L6.48 13.72L0.76 13.72L0.50 13.26L5.00 5.96L1.85 5.96L1.54 7.06L0.92 7.06L0.78 5.15L6.57 5.15L6.64 5.60L2.20 12.89L5.49 12.89L6.01 11.59ZM15.34 13.55L15.34 13.55Q14.55 13.78 13.85 13.78L13.85 13.78L13.85 13.78Q13.48 13.78 13.17 13.58L13.17 13.58L13.17 13.58Q12.85 13.38 12.80 13.05L12.80 13.05L12.80 13.05Q12.07 13.43 11.46 13.64L11.46 13.64L11.46 13.64Q10.85 13.86 10.22 13.86L10.22 13.86L10.22 13.86Q9.35 13.86 8.96 13.39L8.96 13.39L8.96 13.39Q8.57 12.92 8.57 12.21L8.57 12.21L8.57 7.81L7.38 7.67L7.38 7.24L9.52 6.71L9.97 6.71L9.97 11.96L9.97 11.96Q9.97 12.46 10.19 12.68L10.19 12.68L10.19 12.68Q10.40 12.91 11.02 12.91L11.02 12.91L11.02 12.91Q11.35 12.91 11.84 12.78L11.84 12.78L11.84 12.78Q12.33 12.64 12.73 12.46L12.73 12.46L12.73 7.81L11.52 7.67L11.52 7.24L13.66 6.71L14.13 6.71L14.13 12.80L15.34 13.09L15.34 13.55ZM18.13 7.08L18.13 7.08Q18.45 6.93 18.87 6.82L18.87 6.82L18.87 6.82Q19.29 6.71 19.64 6.71L19.64 6.71L19.64 6.71Q21.20 6.71 22.04 7.58L22.04 7.58L22.04 7.58Q22.88 8.46 22.88 10.23L22.88 10.23L22.88 10.23Q22.88 11.80 22.11 12.83L22.11 12.83L22.11 12.83Q21.34 13.86 19.45 13.86L19.45 13.86L19.45 13.86Q18.86 13.86 18.03 13.75L18.03 13.75L18.03 13.75Q17.21 13.64 16.73 13.47L16.73 13.47L16.73 4.63L15.54 4.49L15.54 4.06L17.70 3.53L18.13 3.53L18.13 7.08ZM18.13 12.91L18.13 12.91Q18.33 13.01 18.66 13.08L18.66 13.08L18.66 13.08Q19.00 13.15 19.39 13.15L19.39 13.15L19.39 13.15Q20.50 13.15 20.92 12.45L20.92 12.45L20.92 12.45Q21.35 11.76 21.35 10.26L21.35 10.26L21.35 10.26Q21.35 8.82 20.94 8.14L20.94 8.14L20.94 8.14Q20.52 7.46 19.43 7.46L19.43 7.46L19.43 7.46Q19.05 7.46 18.75 7.54L18.75 7.54L18.75 7.54Q18.45 7.62 18.13 7.77L18.13 7.77L18.13 12.91ZM26.54 7.49L26.54 7.49Q25.91 7.49 25.56 7.74L25.56 7.74L25.56 7.74Q25.21 7.98 25.21 8.41L25.21 8.41L25.21 8.41Q25.21 8.82 25.41 9.04L25.41 9.04L25.41 9.04Q25.61 9.25 26.11 9.44L26.11 9.44L27.30 9.84L27.30 9.84Q28.15 10.14 28.48 10.56L28.48 10.56L28.48 10.56Q28.81 10.98 28.81 11.72L28.81 11.72L28.81 11.72Q28.81 12.71 28.12 13.29L28.12 13.29L28.12 13.29Q27.43 13.86 26.12 13.86L26.12 13.86L26.12 13.86Q25.62 13.86 25.02 13.76L25.02 13.76L25.02 13.76Q24.43 13.66 23.97 13.50L23.97 13.50L24.16 11.77L24.71 11.77L25.00 12.94L25.00 12.94Q25.56 13.10 26.15 13.10L26.15 13.10L26.15 13.10Q27.59 13.10 27.59 11.97L27.59 11.97L27.59 11.97Q27.59 11.63 27.37 11.42L27.37 11.42L27.37 11.42Q27.15 11.20 26.54 10.99L26.54 10.99L25.47 10.63L25.47 10.63Q24.72 10.35 24.39 9.91L24.39 9.91L24.39 9.91Q24.05 9.48 24.05 8.76L24.05 8.76L24.05 8.76Q24.05 7.78 24.68 7.25L24.68 7.25L24.68 7.25Q25.31 6.71 26.57 6.71L26.57 6.71L26.57 6.71Q27.57 6.71 28.55 7.14L28.55 7.14L28.34 8.72L27.80 8.72L27.51 7.70L27.51 7.70Q27.33 7.62 27.05 7.55L27.05 7.55L27.05 7.55Q26.78 7.49 26.54 7.49L26.54 7.49Z"></path></g><!----><g data-v-423bf9ae="" id="1e0dcf15-2256-4484-8080-a8b8eabe77cf" transform="matrix(1.7962882483734934,0,0,1.7962882483734934,-0.8028565853723819,-0.7678689504618745)" stroke="none" fill="white"><path d="M35.6 51c.5 0 1-.5 1-1 0-.6.1-1.8.2-4.1.2-3.1 2-4.6 2.1-4.7 2.1-1.7 3.8-3.6 5.1-5.8h4.6c1.4 0 2.5-1.1 2.5-2.5V10.3c0-1.4-1.1-2.5-2.5-2.5H40c-2.1-2.2-4.6-3.9-7.4-5.2-10.2-4.5-18.3 1.3-22.3 5.2-3.6 3.6-2.9 8-3 8.6 0 5.4-7.7 9.5-6.2 13.7.5 1.4 1.7 2.1 2.6 2.5-.5 1.5-.8 2.7 0 4.5 0 .1.8 1.8.9 1.9-1.4 3.5.5 6 3.1 6.4 5.5.9 7.1 1.6 7.6 1.9V50c.1 1.9 2.4.6 20.3 1zm12.9-17.6H19.2c-.3 0-.5-.2-.5-.5V16.6H49V33c0 .2-.2.4-.5.4zm.5-23.1v4.3H18.7v-4.3c0-.3.2-.5.5-.5h29.3c.3 0 .5.2.5.5zM8.1 43.4c-.6-.1-1.1-.4-1.5-.9-.6-.8-.4-1.7 0-2.7.5-1.2-.2-1.8-1-3.5-1-2.1.9-3.7.3-4.7-.1-.3-.4-.4-.7-.5-.5-.1-1.9-.6-2.2-1.6-.7-1.8 2.2-3.7 5.2-8.8 1.5-2.5 1.1-4.8 1.1-5.6 0-2.2.8-4.3 2.4-5.8 3.6-3.5 10.9-8.8 20-4.7 1.9.9 3.7 2 5.3 3.4H19.2c-1.4 0-2.5 1.1-2.5 2.5V33c0 1.4 1.1 2.5 2.5 2.5h22.3c-1.1 1.5-2.4 2.9-4 4.2-.1.1-2.5 2.1-2.8 6.1-.1 1.5-.1 2.5-.2 3.2H17.4v-1.6c.1-.2.1-.5 0-.8-.2-.6-.7-1.9-9.3-3.2z"></path><path d="M26.6 13.2c.6 0 1-.5 1-1 0-.6-.5-1-1-1-.6 0-1 .5-1 1 0 .6.4 1 1 1z"></path><circle cx="20.9" cy="12.2" r="1"></circle><circle cx="23.8" cy="12.2" r="1"></circle><path d="M29.9 13.2h17.6c.6 0 1-.4 1-1s-.4-1-1-1H29.9c-.6 0-1 .4-1 1s.5 1 1 1zM25.4 24.9l3.9-2.6c.5-.3.6-.9.3-1.4-.3-.5-.9-.6-1.4-.3L23 24.1c-.3.2-.4.5-.4.8 0 .3.2.6.4.8l5.1 3.6c.5.3 1.1.2 1.4-.2.3-.5.2-1.1-.2-1.4l-3.9-2.8zM44.7 24.1l-5.1-3.4c-.5-.3-1.1-.2-1.4.3-.3.5-.2 1.1.3 1.4l3.9 2.6-3.9 2.8c-.5.3-.6.9-.2 1.4.3.4.9.6 1.4.2l5.1-3.6c.3-.2.4-.5.4-.8-.1-.5-.3-.8-.5-.9zM36.7 19.3c-.5-.2-1.1 0-1.3.4l-4.8 9.6c-.2.5 0 1.1.4 1.3.5.2 1.1 0 1.3-.4l4.8-9.6c.3-.4.1-1.1-.4-1.3z"></path></g><!----></svg>