<svg data-v-fde0c5aa="" xmlns="http://www.w3.org/2000/svg" viewBox="0 0 300 300" class="font"><!----><defs data-v-fde0c5aa=""><!----></defs><rect data-v-fde0c5aa="" fill="#040404" x="0" y="0" width="300px" height="300px" class="logo-background-square"></rect><defs data-v-fde0c5aa=""><!----></defs><g data-v-fde0c5aa="" id="f1acb628-3d2a-4172-aeab-48848262653a" fill="#18d26e" transform="matrix(7.771105762988987,0,0,7.771105762988987,36.11444711850551,82.43023590958805)"><path d="M6.01 11.59L6.62 11.59L6.48 13.72L0.76 13.72L0.50 13.26L5.00 5.96L1.85 5.96L1.54 7.06L0.92 7.06L0.78 5.15L6.57 5.15L6.64 5.60L2.20 12.89L5.49 12.89L6.01 11.59ZM15.34 13.55L15.34 13.55Q14.55 13.78 13.85 13.78L13.85 13.78L13.85 13.78Q13.48 13.78 13.17 13.58L13.17 13.58L13.17 13.58Q12.85 13.38 12.80 13.05L12.80 13.05L12.80 13.05Q12.07 13.43 11.46 13.64L11.46 13.64L11.46 13.64Q10.85 13.86 10.22 13.86L10.22 13.86L10.22 13.86Q9.35 13.86 8.96 13.39L8.96 13.39L8.96 13.39Q8.57 12.92 8.57 12.21L8.57 12.21L8.57 7.81L7.38 7.67L7.38 7.24L9.52 6.71L9.97 6.71L9.97 11.96L9.97 11.96Q9.97 12.46 10.19 12.68L10.19 12.68L10.19 12.68Q10.40 12.91 11.02 12.91L11.02 12.91L11.02 12.91Q11.35 12.91 11.84 12.78L11.84 12.78L11.84 12.78Q12.33 12.64 12.73 12.46L12.73 12.46L12.73 7.81L11.52 7.67L11.52 7.24L13.66 6.71L14.13 6.71L14.13 12.80L15.34 13.09L15.34 13.55ZM18.13 7.08L18.13 7.08Q18.45 6.93 18.87 6.82L18.87 6.82L18.87 6.82Q19.29 6.71 19.64 6.71L19.64 6.71L19.64 6.71Q21.20 6.71 22.04 7.58L22.04 7.58L22.04 7.58Q22.88 8.46 22.88 10.23L22.88 10.23L22.88 10.23Q22.88 11.80 22.11 12.83L22.11 12.83L22.11 12.83Q21.34 13.86 19.45 13.86L19.45 13.86L19.45 13.86Q18.86 13.86 18.03 13.75L18.03 13.75L18.03 13.75Q17.21 13.64 16.73 13.47L16.73 13.47L16.73 4.63L15.54 4.49L15.54 4.06L17.70 3.53L18.13 3.53L18.13 7.08ZM18.13 12.91L18.13 12.91Q18.33 13.01 18.66 13.08L18.66 13.08L18.66 13.08Q19.00 13.15 19.39 13.15L19.39 13.15L19.39 13.15Q20.50 13.15 20.92 12.45L20.92 12.45L20.92 12.45Q21.35 11.76 21.35 10.26L21.35 10.26L21.35 10.26Q21.35 8.82 20.94 8.14L20.94 8.14L20.94 8.14Q20.52 7.46 19.43 7.46L19.43 7.46L19.43 7.46Q19.05 7.46 18.75 7.54L18.75 7.54L18.75 7.54Q18.45 7.62 18.13 7.77L18.13 7.77L18.13 12.91ZM26.54 7.49L26.54 7.49Q25.91 7.49 25.56 7.74L25.56 7.74L25.56 7.74Q25.21 7.98 25.21 8.41L25.21 8.41L25.21 8.41Q25.21 8.82 25.41 9.04L25.41 9.04L25.41 9.04Q25.61 9.25 26.11 9.44L26.11 9.44L27.30 9.84L27.30 9.84Q28.15 10.14 28.48 10.56L28.48 10.56L28.48 10.56Q28.81 10.98 28.81 11.72L28.81 11.72L28.81 11.72Q28.81 12.71 28.12 13.29L28.12 13.29L28.12 13.29Q27.43 13.86 26.12 13.86L26.12 13.86L26.12 13.86Q25.62 13.86 25.02 13.76L25.02 13.76L25.02 13.76Q24.43 13.66 23.97 13.50L23.97 13.50L24.16 11.77L24.71 11.77L25.00 12.94L25.00 12.94Q25.56 13.10 26.15 13.10L26.15 13.10L26.15 13.10Q27.59 13.10 27.59 11.97L27.59 11.97L27.59 11.97Q27.59 11.63 27.37 11.42L27.37 11.42L27.37 11.42Q27.15 11.20 26.54 10.99L26.54 10.99L25.47 10.63L25.47 10.63Q24.72 10.35 24.39 9.91L24.39 9.91L24.39 9.91Q24.05 9.48 24.05 8.76L24.05 8.76L24.05 8.76Q24.05 7.78 24.68 7.25L24.68 7.25L24.68 7.25Q25.31 6.71 26.57 6.71L26.57 6.71L26.57 6.71Q27.57 6.71 28.55 7.14L28.55 7.14L28.34 8.72L27.80 8.72L27.51 7.70L27.51 7.70Q27.33 7.62 27.05 7.55L27.05 7.55L27.05 7.55Q26.78 7.49 26.54 7.49L26.54 7.49Z"></path></g><!----><!----></svg>